<svg id="Capa_1" enable-background="new 0 0 512 512" height="512" viewBox="0 0 512 512" width="512" xmlns="http://www.w3.org/2000/svg"><g><g><path d="m96 452.539h320c52.052-44.927 85-111.384 85-185.539 0-135.31-109.69-245-245-245s-245 109.69-245 245c0 74.155 32.948 140.611 85 185.539z" fill="#543e5b"/></g><g><circle cx="256" cy="242" fill="#45304c" r="200"/></g><g><path d="m396 120-140 15-140-15c-11.046 0-20-8.954-20-20v-80c0-11.046 8.954-20 20-20h280c11.046 0 20 8.954 20 20v80c0 11.046-8.954 20-20 20z" fill="#fff"/></g><g><path d="m151 105c0-8.284 6.716-15 15-15v-60c-8.284 0-15-6.716-15-15s6.716-15 15-15h-50c-11.046 0-20 8.954-20 20v80c0 11.046 8.954 20 20 20l50 5.357v-5.357c-8.284 0-15-6.716-15-15z" fill="#deeeff"/></g><g><path d="m226-70h60v260h-60z" fill="#9bd8f9" transform="matrix(0 1 -1 0 316 -196)"/></g><g><path d="m126 30h40v60h-40z" fill="#73c3f9"/></g><g><path d="m400.996 464.485c5.156-3.792 10.167-7.771 15.004-11.946v-312.539c0-11.046-8.954-20-20-20h-280c-11.046 0-20 8.954-20 20v312.539c4.837 4.175 9.848 8.154 15.004 11.946z" fill="#deeeff"/></g><g><path d="m146 464.485v-324.485c0-11.046 8.954-20 20-20h-50c-11.046 0-20 8.954-20 20v312.539c4.843 4.18 9.87 8.151 15.034 11.946z" fill="#d3dcfb"/></g><g><path d="m385.992 474.684c5.132-3.22 10.14-6.619 15.008-10.199v-324.485c0-2.757-2.243-5-5-5h-280c-2.757 0-5 2.243-5 5v324.485c4.867 3.58 9.875 6.979 15.008 10.199z" fill="#49b1f7"/></g><g><path d="m386 150h-260v324.684c37.68 23.635 82.239 37.316 130 37.316s92.32-13.681 130-37.316z" fill="#9bd8f9"/></g><g><path d="m126 474.684c17.039 10.688 35.485 19.336 55 25.605v-350.289h-55z" fill="#73c3f9"/></g><g><g><path d="m176 351.05h60v45.284h-60z" fill="#49b1f7"/></g><g><path d="m176 351.05h30v45.284h-30z" fill="#1e9ef4"/></g><g><path d="m176 321.05h60v30h-60z" fill="#1e9ef4"/></g><g><path d="m166 351.05c0-5.523 4.477-10 10-10h60c5.523 0 10 4.477 10 10 0 5.523-4.477 10-10 10h-60c-5.523 0-10-4.477-10-10z" fill="#73c3f9"/></g><g><path d="m166 320.667c0-5.523 4.477-10 10-10h60c5.523 0 10 4.477 10 10 0 5.523-4.477 10-10 10h-60c-5.523 0-10-4.477-10-10z" fill="#73c3f9"/></g><g><path d="m196 320.667c0-5.523 4.477-10 10-10h-30c-5.523 0-10 4.477-10 10 0 5.523 4.477 10 10 10h30c-5.523 0-10-4.478-10-10z" fill="#49b1f7"/></g><g><path d="m196 351.05c0-5.523 4.477-10 10-10h-30c-5.523 0-10 4.477-10 10 0 5.523 4.477 10 10 10h30c-5.523 0-10-4.478-10-10z" fill="#49b1f7"/></g></g><g><g><path d="m276 351.05h60v45.284h-60z" fill="#49b1f7"/></g><g><path d="m276 351.05h30v45.284h-30z" fill="#1e9ef4"/></g><g><path d="m276 321.05h60v30h-60z" fill="#1e9ef4"/></g><g><path d="m266 351.05c0-5.523 4.477-10 10-10h60c5.523 0 10 4.477 10 10 0 5.523-4.477 10-10 10h-60c-5.523 0-10-4.477-10-10z" fill="#73c3f9"/></g><g><path d="m266 320.667c0-5.523 4.477-10 10-10h60c5.523 0 10 4.477 10 10 0 5.523-4.477 10-10 10h-60c-5.523 0-10-4.477-10-10z" fill="#73c3f9"/></g><g><path d="m296 320.667c0-5.523 4.477-10 10-10h-30c-5.523 0-10 4.477-10 10 0 5.523 4.477 10 10 10h30c-5.523 0-10-4.478-10-10z" fill="#49b1f7"/></g><g><path d="m296 351.05c0-5.523 4.477-10 10-10h-30c-5.523 0-10 4.477-10 10 0 5.523 4.477 10 10 10h30c-5.523 0-10-4.478-10-10z" fill="#49b1f7"/></g></g><g><g><path d="m176 498.623c19.044 6.581 39.153 10.875 60 12.562v-29.469h-60z" fill="#49b1f7"/></g><g><path d="m176 498.623c9.736 3.364 19.751 6.129 30 8.256v-25.163h-30z" fill="#1e9ef4"/></g><g><path d="m176 451.716h60v30h-60z" fill="#1e9ef4"/></g><g><path d="m166 481.716c0-5.523 4.477-10 10-10h60c5.523 0 10 4.477 10 10 0 5.523-4.477 10-10 10h-60c-5.523 0-10-4.477-10-10z" fill="#73c3f9"/></g><g><path d="m166 451.333c0-5.523 4.477-10 10-10h60c5.523 0 10 4.477 10 10 0 5.523-4.477 10-10 10h-60c-5.523 0-10-4.477-10-10z" fill="#73c3f9"/></g><g><path d="m196 451.333c0-5.523 4.477-10 10-10h-30c-5.523 0-10 4.477-10 10 0 5.523 4.477 10 10 10h30c-5.523 0-10-4.477-10-10z" fill="#49b1f7"/></g><g><path d="m196 481.716c0-5.523 4.477-10 10-10h-30c-5.523 0-10 4.477-10 10 0 5.523 4.477 10 10 10h30c-5.523 0-10-4.477-10-10z" fill="#49b1f7"/></g></g><g><g><path d="m276 511.185c20.847-1.686 40.956-5.981 60-12.562v-16.907h-60z" fill="#49b1f7"/></g><g><path d="m276 511.185c10.189-.824 20.202-2.272 30-4.305v-25.163h-30z" fill="#1e9ef4"/></g><g><path d="m276 451.716h60v30h-60z" fill="#1e9ef4"/></g><g><path d="m266 481.716c0-5.523 4.477-10 10-10h60c5.523 0 10 4.477 10 10 0 5.523-4.477 10-10 10h-60c-5.523 0-10-4.477-10-10z" fill="#73c3f9"/></g><g><path d="m266 451.333c0-5.523 4.477-10 10-10h60c5.523 0 10 4.477 10 10 0 5.523-4.477 10-10 10h-60c-5.523 0-10-4.477-10-10z" fill="#73c3f9"/></g><g><path d="m296 451.333c0-5.523 4.477-10 10-10h-30c-5.523 0-10 4.477-10 10 0 5.523 4.477 10 10 10h30c-5.523 0-10-4.477-10-10z" fill="#49b1f7"/></g><g><path d="m296 481.716c0-5.523 4.477-10 10-10h-30c-5.523 0-10 4.477-10 10 0 5.523 4.477 10 10 10h30c-5.523 0-10-4.477-10-10z" fill="#49b1f7"/></g></g><g><g><path d="m176 220.383h60v45.284h-60z" fill="#49b1f7"/></g><g><path d="m176 220.383h30v45.284h-30z" fill="#1e9ef4"/></g><g><path d="m176 190.383h60v30h-60z" fill="#1e9ef4"/></g><g><path d="m166 220.383c0-5.523 4.477-10 10-10h60c5.523 0 10 4.477 10 10 0 5.523-4.477 10-10 10h-60c-5.523 0-10-4.477-10-10z" fill="#73c3f9"/></g><g><path d="m166 190c0-5.523 4.477-10 10-10h60c5.523 0 10 4.477 10 10 0 5.523-4.477 10-10 10h-60c-5.523 0-10-4.477-10-10z" fill="#73c3f9"/></g><g><path d="m196 190c0-5.523 4.477-10 10-10h-30c-5.523 0-10 4.477-10 10 0 5.523 4.477 10 10 10h30c-5.523 0-10-4.477-10-10z" fill="#49b1f7"/></g><g><path d="m196 220.383c0-5.523 4.477-10 10-10h-30c-5.523 0-10 4.477-10 10 0 5.523 4.477 10 10 10h30c-5.523 0-10-4.477-10-10z" fill="#49b1f7"/></g></g><g><g><path d="m276 220.383h60v45.284h-60z" fill="#49b1f7"/></g><g><path d="m276 220.383h30v45.284h-30z" fill="#1e9ef4"/></g><g><path d="m276 190.383h60v30h-60z" fill="#1e9ef4"/></g><g><path d="m266 220.383c0-5.523 4.477-10 10-10h60c5.523 0 10 4.477 10 10 0 5.523-4.477 10-10 10h-60c-5.523 0-10-4.477-10-10z" fill="#73c3f9"/></g><g><path d="m266 190c0-5.523 4.477-10 10-10h60c5.523 0 10 4.477 10 10 0 5.523-4.477 10-10 10h-60c-5.523 0-10-4.477-10-10z" fill="#73c3f9"/></g><g><path d="m296 190c0-5.523 4.477-10 10-10h-30c-5.523 0-10 4.477-10 10 0 5.523 4.477 10 10 10h30c-5.523 0-10-4.477-10-10z" fill="#49b1f7"/></g><g><path d="m296 220.383c0-5.523 4.477-10 10-10h-30c-5.523 0-10 4.477-10 10 0 5.523 4.477 10 10 10h30c-5.523 0-10-4.477-10-10z" fill="#49b1f7"/></g></g><g><path d="m126 250.667h260v30h-260z" fill="#73c3f9"/></g><g><path d="m166 265.667c0-8.284 6.716-15 15-15h-55v30h55c-8.284 0-15-6.716-15-15z" fill="#49b1f7"/></g><g><path d="m126 381.333h260v30h-260z" fill="#73c3f9"/></g><g><path d="m166 396.333c0-8.284 6.716-15 15-15h-55v30h55c-8.284 0-15-6.715-15-15z" fill="#49b1f7"/></g><g><path d="m156 60c0-5.523 4.477-10 10-10h180c5.523 0 10 4.477 10 10 0 5.523-4.477 10-10 10h-180c-5.523 0-10-4.477-10-10z" fill="#73c3f9"/></g><g><path d="m206.043 60c0-5.523 4.477-10 10-10h-50.043c-5.523 0-10 4.477-10 10s4.477 10 10 10h50.043c-5.523 0-10-4.477-10-10z" fill="#49b1f7"/></g><g><path d="m356 426.333v-60c0-8.284 6.716-15 15-15 8.284 0 15 6.716 15 15v60c0 8.284-6.716 15-15 15-8.284 0-15-6.715-15-15z" fill="#45304c"/></g><g><path d="m371 441.333v-90c0-8.284 6.716-15 15-15 8.284 0 15 6.716 15 15v90c0 8.284-6.716 15-15 15-8.284 0-15-6.715-15-15z" fill="#6c5475"/></g><g><path d="m386 396.333c-8.284 0-15-6.716-15-15v60c0 8.284 6.716 15 15 15s15-6.716 15-15v-60c0 8.285-6.716 15-15 15z" fill="#543e5b"/></g></g></svg>